<mxfile host="65bd71144e">
    <diagram id="OOBZV1UOzV7u4QL_6fJG" name="Page-1">
        <mxGraphModel dx="960" dy="713" grid="1" gridSize="10" guides="1" tooltips="1" connect="1" arrows="1" fold="1" page="1" pageScale="1" pageWidth="850" pageHeight="1100" background="#ffffff" math="0" shadow="0">
            <root>
                <mxCell id="0"/>
                <mxCell id="1" parent="0"/>
                <mxCell id="28" value="&lt;h2&gt;&lt;font color=&quot;#000000&quot; face=&quot;Tahoma&quot;&gt;Renewal Service Internal Design&lt;/font&gt;&lt;/h2&gt;" style="text;html=1;strokeColor=none;fillColor=none;align=center;verticalAlign=middle;whiteSpace=wrap;rounded=0;" parent="1" vertex="1">
                    <mxGeometry x="290" y="10" width="320" height="30" as="geometry"/>
                </mxCell>
                <mxCell id="51" style="edgeStyle=none;html=1;entryX=0;entryY=0.5;entryDx=0;entryDy=0;fontColor=#000000;strokeColor=#000000;" edge="1" parent="1" source="44" target="47">
                    <mxGeometry relative="1" as="geometry"/>
                </mxCell>
                <mxCell id="52" style="edgeStyle=none;html=1;entryX=0;entryY=0.5;entryDx=0;entryDy=0;fontColor=#000000;strokeColor=#000000;" edge="1" parent="1" source="44" target="49">
                    <mxGeometry relative="1" as="geometry"/>
                </mxCell>
                <mxCell id="53" style="edgeStyle=none;html=1;entryX=0;entryY=0.5;entryDx=0;entryDy=0;fontColor=#000000;strokeColor=#000000;" edge="1" parent="1" source="44" target="50">
                    <mxGeometry relative="1" as="geometry"/>
                </mxCell>
                <mxCell id="44" value="&lt;font color=&quot;#000000&quot;&gt;Status Change Event&lt;/font&gt;" style="rounded=0;whiteSpace=wrap;html=1;fillColor=none;strokeColor=#000000;" vertex="1" parent="1">
                    <mxGeometry x="80" y="160" width="140" height="40" as="geometry"/>
                </mxCell>
                <mxCell id="59" style="edgeStyle=none;html=1;fontColor=#000000;strokeColor=#000000;" edge="1" parent="1" source="45">
                    <mxGeometry relative="1" as="geometry">
                        <mxPoint x="650" y="95" as="targetPoint"/>
                    </mxGeometry>
                </mxCell>
                <mxCell id="45" value="&lt;font color=&quot;#000000&quot;&gt;Initialized Policy Command&lt;/font&gt;" style="rounded=0;whiteSpace=wrap;html=1;fillColor=none;strokeColor=#000000;" vertex="1" parent="1">
                    <mxGeometry x="470" y="75" width="140" height="40" as="geometry"/>
                </mxCell>
                <mxCell id="46" value="" style="html=1;verticalLabelPosition=bottom;align=center;labelBackgroundColor=#ffffff;verticalAlign=top;strokeWidth=2;strokeColor=#0080F0;shadow=0;dashed=0;shape=mxgraph.ios7.icons.mail;fontColor=#000000;fillColor=none;" vertex="1" parent="1">
                    <mxGeometry x="130" y="210" width="30" height="16.5" as="geometry"/>
                </mxCell>
                <mxCell id="54" style="edgeStyle=none;html=1;fontColor=#000000;strokeColor=#000000;" edge="1" parent="1" source="47">
                    <mxGeometry relative="1" as="geometry">
                        <mxPoint x="470" y="95" as="targetPoint"/>
                    </mxGeometry>
                </mxCell>
                <mxCell id="47" value="&lt;strong style=&quot;text-align: left&quot;&gt;Start Initialization&lt;/strong&gt;" style="ellipse;whiteSpace=wrap;html=1;fontColor=#000000;strokeColor=#000000;fillColor=none;" vertex="1" parent="1">
                    <mxGeometry x="280" y="70" width="120" height="50" as="geometry"/>
                </mxCell>
                <mxCell id="55" style="edgeStyle=none;html=1;fontColor=#000000;strokeColor=#000000;" edge="1" parent="1" source="49">
                    <mxGeometry relative="1" as="geometry">
                        <mxPoint x="470" y="180" as="targetPoint"/>
                    </mxGeometry>
                </mxCell>
                <mxCell id="49" value="&lt;strong style=&quot;text-align: left&quot;&gt;Start Order Generation&lt;/strong&gt;" style="ellipse;whiteSpace=wrap;html=1;fontColor=#000000;strokeColor=#000000;fillColor=none;" vertex="1" parent="1">
                    <mxGeometry x="280" y="155" width="120" height="50" as="geometry"/>
                </mxCell>
                <mxCell id="58" style="edgeStyle=none;html=1;entryX=0;entryY=0.5;entryDx=0;entryDy=0;fontColor=#000000;strokeColor=#000000;" edge="1" parent="1" source="50" target="57">
                    <mxGeometry relative="1" as="geometry"/>
                </mxCell>
                <mxCell id="50" value="&lt;strong style=&quot;text-align: left&quot;&gt;Start Order Submission&lt;/strong&gt;" style="ellipse;whiteSpace=wrap;html=1;fontColor=#000000;strokeColor=#000000;fillColor=none;" vertex="1" parent="1">
                    <mxGeometry x="280" y="250" width="120" height="50" as="geometry"/>
                </mxCell>
                <mxCell id="60" style="edgeStyle=none;html=1;fontColor=#000000;strokeColor=#000000;" edge="1" parent="1" source="56">
                    <mxGeometry relative="1" as="geometry">
                        <mxPoint x="650" y="180" as="targetPoint"/>
                    </mxGeometry>
                </mxCell>
                <mxCell id="56" value="&lt;font color=&quot;#000000&quot;&gt;Generate&lt;br&gt;OrderCommand&lt;/font&gt;" style="rounded=0;whiteSpace=wrap;html=1;fillColor=none;strokeColor=#000000;" vertex="1" parent="1">
                    <mxGeometry x="470" y="160" width="140" height="40" as="geometry"/>
                </mxCell>
                <mxCell id="61" style="edgeStyle=none;html=1;fontColor=#000000;strokeColor=#000000;" edge="1" parent="1" source="57">
                    <mxGeometry relative="1" as="geometry">
                        <mxPoint x="650" y="275" as="targetPoint"/>
                    </mxGeometry>
                </mxCell>
                <mxCell id="57" value="&lt;font color=&quot;#000000&quot;&gt;SubmitOrderCommand&lt;/font&gt;" style="rounded=0;whiteSpace=wrap;html=1;fillColor=none;strokeColor=#000000;" vertex="1" parent="1">
                    <mxGeometry x="470" y="255" width="140" height="40" as="geometry"/>
                </mxCell>
                <mxCell id="62" value="&lt;strong style=&quot;text-align: left&quot;&gt;Initialization&lt;/strong&gt;" style="ellipse;whiteSpace=wrap;html=1;fontColor=#000000;strokeColor=#000000;fillColor=none;" vertex="1" parent="1">
                    <mxGeometry x="650" y="70" width="120" height="50" as="geometry"/>
                </mxCell>
                <mxCell id="63" value="&lt;strong style=&quot;text-align: left&quot;&gt;Generate Renewal Order&lt;/strong&gt;" style="ellipse;whiteSpace=wrap;html=1;fontColor=#000000;strokeColor=#000000;fillColor=none;" vertex="1" parent="1">
                    <mxGeometry x="650" y="155" width="120" height="50" as="geometry"/>
                </mxCell>
                <mxCell id="64" value="&lt;strong style=&quot;text-align: left&quot;&gt;Submit Renewal Order&lt;/strong&gt;" style="ellipse;whiteSpace=wrap;html=1;fontColor=#000000;strokeColor=#000000;fillColor=none;" vertex="1" parent="1">
                    <mxGeometry x="650" y="250" width="120" height="50" as="geometry"/>
                </mxCell>
                <mxCell id="65" value="" style="html=1;verticalLabelPosition=bottom;align=center;labelBackgroundColor=#ffffff;verticalAlign=top;strokeWidth=2;strokeColor=#0080F0;shadow=0;dashed=0;shape=mxgraph.ios7.icons.mail;fontColor=#000000;fillColor=none;" vertex="1" parent="1">
                    <mxGeometry x="470" y="120" width="30" height="16.5" as="geometry"/>
                </mxCell>
                <mxCell id="66" value="" style="html=1;verticalLabelPosition=bottom;align=center;labelBackgroundColor=#ffffff;verticalAlign=top;strokeWidth=2;strokeColor=#0080F0;shadow=0;dashed=0;shape=mxgraph.ios7.icons.mail;fontColor=#000000;fillColor=none;" vertex="1" parent="1">
                    <mxGeometry x="470" y="205" width="30" height="16.5" as="geometry"/>
                </mxCell>
                <mxCell id="67" value="" style="html=1;verticalLabelPosition=bottom;align=center;labelBackgroundColor=#ffffff;verticalAlign=top;strokeWidth=2;strokeColor=#0080F0;shadow=0;dashed=0;shape=mxgraph.ios7.icons.mail;fontColor=#000000;fillColor=none;" vertex="1" parent="1">
                    <mxGeometry x="470" y="300" width="30" height="16.5" as="geometry"/>
                </mxCell>
            </root>
        </mxGraphModel>
    </diagram>
</mxfile>